<?xml version="1.0" standalone="no"?>
<!DOCTYPE svg PUBLIC "-//W3C//DTD SVG 20010904//EN"
 "http://www.w3.org/TR/2001/REC-SVG-20010904/DTD/svg10.dtd">
<svg version="1.0" xmlns="http://www.w3.org/2000/svg"
 width="600.000000pt" height="600.000000pt" viewBox="0 0 600.000000 600.000000"
 preserveAspectRatio="xMidYMid meet">
<metadata>
Created by potrace 1.14, written by Peter Selinger 2001-2017
</metadata>
<g transform="translate(0.000000,600.000000) scale(0.100000,-0.100000)"
fill="#000000" stroke="none">
<path d="M3252 5773 c-56 -60 -150 -169 -209 -243 l-108 -135 -100 -6 c-55 -4
-191 -7 -303 -8 -227 -1 -276 -11 -270 -53 3 -20 8 -23 38 -20 19 2 159 6 312
8 272 5 276 5 283 -15 3 -12 11 -21 16 -21 16 0 89 64 89 78 0 24 144 201 302
371 73 78 80 83 102 73 37 -17 130 -147 185 -258 35 -72 59 -140 85 -249 20
-82 40 -163 44 -180 5 -21 15 -31 31 -33 36 -6 40 8 24 78 -68 286 -75 308
-128 415 -52 106 -165 263 -202 284 -10 5 -34 12 -54 16 -35 7 -37 5 -137
-102z"/>
<path d="M1905 5793 c-60 -11 -124 -38 -154 -66 -78 -73 -172 -252 -258 -487
-43 -118 -69 -293 -48 -326 8 -12 23 -64 35 -115 11 -52 26 -114 31 -139 6
-25 13 -122 16 -217 l6 -172 -27 -33 c-15 -18 -46 -62 -69 -98 -42 -66 -227
-260 -248 -260 -12 0 -23 -9 -189 -154 -52 -45 -129 -106 -170 -134 -41 -29
-100 -75 -130 -104 -30 -28 -80 -69 -110 -92 -79 -59 -163 -145 -185 -191 -45
-91 -25 -580 30 -735 75 -213 112 -277 230 -396 l70 -70 150 -53 c298 -104
449 -131 754 -131 218 0 233 -1 225 -17 -4 -10 -35 -99 -70 -198 -34 -99 -74
-213 -88 -253 -14 -41 -26 -85 -26 -98 0 -14 -7 -41 -16 -62 -11 -25 -21 -97
-29 -220 l-13 -184 -54 -48 c-122 -109 -259 -207 -417 -299 -60 -35 -140 -91
-177 -125 l-67 -61 6 33 c4 18 34 88 67 155 57 116 69 162 54 201 -9 23 -22
21 -152 -25 -64 -23 -148 -53 -185 -66 -77 -27 -197 -42 -197 -25 0 6 21 28
48 48 26 21 74 64 108 96 63 59 72 63 163 73 73 8 121 29 121 52 0 35 -19 43
-62 27 -22 -8 -54 -14 -70 -14 -68 0 -120 -22 -182 -79 -79 -73 -213 -180
-243 -194 -28 -13 -39 -43 -22 -64 11 -13 35 -14 154 -11 138 4 142 5 260 50
118 45 195 70 195 63 0 -2 -22 -50 -49 -107 -168 -353 -177 -381 -130 -386 22
-3 46 16 135 101 141 133 185 166 302 222 185 89 201 98 237 127 22 19 34 36
31 47 -3 11 15 32 55 64 l59 48 0 -307 c0 -203 4 -320 12 -345 10 -36 14 -39
46 -39 29 0 33 3 27 18 -4 9 -11 35 -16 57 -9 46 -10 505 0 610 6 67 7 70 48
100 56 40 56 71 0 69 l-37 -1 5 121 c4 73 14 147 25 186 10 36 26 90 34 120
27 104 156 473 177 507 l21 33 156 0 c148 0 165 2 297 36 77 20 167 40 200 44
137 17 347 100 449 178 34 25 90 70 126 99 35 29 85 63 110 75 63 31 157 104
163 127 5 20 -9 41 -27 41 -6 0 -40 -23 -75 -50 -36 -28 -70 -50 -76 -50 -11
0 -48 -26 -237 -171 -40 -31 -100 -70 -133 -86 -80 -40 -237 -90 -322 -102
-37 -5 -131 -26 -208 -45 -121 -31 -154 -36 -257 -36 -122 0 -128 2 -107 41
12 23 3 59 -15 59 -15 0 -59 -46 -76 -78 l-12 -24 -266 5 c-253 4 -274 5 -412
35 -80 18 -214 55 -298 83 -125 43 -161 59 -198 92 -54 48 -170 201 -179 237
-4 14 -20 56 -36 93 -49 111 -59 187 -66 467 -5 233 -4 259 12 290 21 41 103
122 160 158 22 14 74 58 115 98 41 39 102 88 135 109 33 21 101 75 151 120 50
45 106 91 123 101 17 10 31 22 31 26 0 4 25 23 55 43 63 42 212 197 253 262
15 24 44 67 65 96 l39 52 -6 200 c-3 110 -10 216 -15 235 -5 19 -20 82 -32
140 -12 58 -27 111 -34 118 -9 10 -10 25 -4 50 5 21 9 52 9 71 0 74 137 413
211 524 62 92 88 116 143 132 27 8 51 14 52 12 2 -1 19 -63 38 -136 34 -130
35 -133 13 -112 -34 31 -90 29 -116 -5 -30 -38 -51 -117 -51 -189 0 -68 12
-90 42 -74 14 7 18 22 18 62 1 58 28 149 47 154 17 6 47 -59 82 -173 42 -143
48 -154 71 -154 31 0 33 21 11 102 -26 92 -26 101 -2 93 21 -6 51 3 51 17 0 5
-18 50 -39 101 -22 51 -54 148 -71 217 -18 69 -36 132 -41 141 -9 19 -34 27
-64 22z"/>
<path d="M3340 5568 c-12 -13 -31 -41 -42 -63 -33 -64 -117 -203 -176 -293
-47 -70 -56 -90 -56 -130 -1 -43 1 -47 24 -47 19 0 25 6 31 31 3 18 34 76 68
130 76 121 126 204 159 267 14 26 29 47 34 47 22 0 110 -256 124 -361 4 -28
14 -59 23 -70 14 -17 19 -18 34 -7 17 13 17 20 7 83 -29 174 -117 401 -165
423 -35 16 -41 15 -65 -10z"/>
<path d="M3854 4966 c-3 -7 9 -35 25 -62 17 -26 31 -53 31 -60 0 -7 14 -38 31
-70 90 -169 104 -274 118 -859 9 -382 29 -566 81 -740 16 -55 49 -163 72 -240
l43 -140 5 -405 c4 -225 11 -441 18 -485 6 -44 16 -129 22 -190 6 -60 19 -155
30 -210 16 -86 19 -145 20 -415 l0 -315 -30 -45 c-17 -25 -44 -79 -61 -120
-17 -41 -49 -110 -71 -154 -41 -82 -78 -206 -78 -262 0 -22 6 -37 19 -43 28
-15 41 6 52 85 10 69 91 264 190 452 l49 93 0 300 c0 165 -4 319 -9 342 -59
267 -73 428 -80 947 -4 288 -10 431 -17 445 -7 11 -21 56 -33 100 -12 44 -42
148 -66 230 -64 216 -85 391 -85 699 0 146 -6 292 -15 371 -8 72 -15 157 -15
190 0 112 -52 324 -89 369 -5 6 -19 37 -31 68 -39 104 -108 172 -126 124z"/>
<path d="M2310 4925 c-63 -14 -81 -21 -181 -69 -72 -34 -166 -63 -281 -87 -62
-13 -92 -36 -82 -63 8 -20 13 -20 99 0 142 34 212 56 305 99 52 25 126 51 163
59 78 16 92 25 82 55 -7 24 -24 25 -105 6z"/>
<path d="M3042 4848 c-18 -18 -15 -33 13 -66 23 -28 29 -29 132 -35 169 -11
308 -53 354 -109 27 -32 54 -34 65 -4 9 23 -44 84 -91 105 -75 33 -206 62
-308 68 -89 5 -100 8 -114 29 -17 27 -33 30 -51 12z"/>
<path d="M2185 4634 c-33 -14 -87 -36 -120 -50 -93 -38 -219 -145 -295 -250
l-65 -89 0 -190 c0 -166 2 -194 19 -225 33 -62 45 -70 100 -69 79 2 100 10
104 43 l4 28 -69 -4 c-67 -3 -68 -3 -82 27 -16 32 -28 277 -17 338 9 49 114
185 180 235 31 23 61 42 65 42 5 0 12 -20 15 -44 4 -24 13 -49 20 -55 8 -6 16
-29 20 -50 9 -57 25 -65 119 -63 l81 2 64 67 c35 38 67 77 71 88 12 30 44
-194 45 -312 l1 -102 -39 -40 c-22 -22 -72 -56 -112 -75 -69 -34 -78 -36 -178
-36 -59 0 -116 5 -131 12 -21 9 -29 9 -40 -3 -13 -13 -13 -17 0 -37 23 -31 79
-43 195 -38 97 4 107 6 185 45 49 25 101 61 131 92 l49 50 3 92 c4 98 -27 345
-54 440 -9 28 -31 76 -50 105 l-35 52 -62 0 c-43 0 -80 -8 -122 -26z"/>
<path d="M3115 4341 c-44 -11 -125 -60 -177 -106 -28 -25 -60 -69 -84 -115
-38 -74 -38 -76 -42 -209 -4 -148 11 -336 32 -386 8 -18 30 -45 49 -60 67 -50
105 -10 44 47 -48 45 -57 100 -57 328 l0 189 31 58 c35 66 103 133 171 168 66
35 116 32 84 -4 -22 -26 -31 -88 -31 -226 0 -107 3 -136 18 -163 27 -50 74
-65 180 -59 48 2 87 1 87 -3 0 -3 -23 -32 -51 -63 -34 -38 -70 -66 -112 -85
-67 -32 -185 -62 -240 -62 -47 0 -66 -23 -42 -50 20 -22 58 -21 170 5 201 46
354 184 355 321 1 21 9 34 33 49 17 11 38 32 47 47 13 25 13 29 -2 44 -15 15
-18 15 -39 0 -13 -9 -26 -16 -30 -16 -3 0 -9 33 -12 73 -8 95 -21 136 -60 193
-53 76 -67 83 -187 89 -58 2 -118 1 -135 -4z m275 -216 c6 3 10 3 10 -2 -1 -4
-16 -18 -35 -30 l-35 -22 0 49 0 49 25 -25 c14 -14 30 -22 35 -19z m-110 -190
c11 -30 36 -47 78 -56 28 -5 15 -7 -50 -8 -98 -1 -108 6 -108 72 l0 35 36 -11
c21 -6 39 -20 44 -32z"/>
<path d="M4452 1588 c-15 -20 3 -54 35 -66 15 -6 73 -13 128 -15 116 -6 233
-39 308 -87 52 -33 87 -33 87 0 0 17 14 18 173 23 117 4 214 13 302 30 126 23
130 24 133 50 3 21 -2 28 -23 33 -14 3 -38 2 -53 -4 -15 -6 -47 -13 -72 -15
-25 -3 -83 -13 -130 -21 -49 -9 -139 -16 -211 -16 -117 0 -127 -1 -132 -19 -5
-19 -9 -18 -73 14 -82 40 -216 72 -333 79 -47 3 -89 10 -95 16 -14 14 -31 13
-44 -2z"/>
<path d="M1629 1443 c-23 -32 -74 -92 -113 -133 -39 -41 -105 -118 -148 -170
-42 -52 -98 -116 -125 -141 -58 -57 -242 -204 -301 -242 -33 -21 -42 -34 -40
-50 7 -52 66 -22 244 123 116 96 199 176 262 254 31 38 102 122 159 185 122
136 161 195 143 217 -21 25 -38 16 -81 -43z"/>
<path d="M3627 1411 c-38 -26 -96 -77 -130 -112 -34 -36 -129 -124 -211 -197
l-149 -132 -57 0 c-32 0 -82 -8 -111 -17 -129 -41 -248 -242 -199 -334 10 -17
22 -19 123 -19 123 0 221 20 321 64 32 14 61 26 64 26 5 0 2 -18 -38 -210 -16
-80 -30 -169 -30 -198 0 -48 2 -53 27 -63 15 -5 45 -7 68 -3 81 13 123 43 253
180 143 151 154 167 128 192 -16 16 -25 9 -159 -130 -141 -146 -189 -182 -230
-176 -20 3 -22 8 -18 48 1 25 14 97 28 160 45 212 51 247 41 264 -13 24 -56
20 -126 -14 -107 -51 -183 -69 -292 -71 -55 -1 -103 0 -105 3 -11 11 23 87 60
137 41 57 73 78 141 90 42 8 46 7 56 -15 14 -29 35 -31 63 -4 11 11 30 21 42
23 31 4 55 28 50 48 -4 13 35 53 142 148 80 72 166 152 191 178 25 26 74 68
110 93 43 30 65 52 65 65 0 37 -45 28 -118 -24z"/>
<path d="M5044 1365 c-7 -18 -3 -24 99 -144 87 -104 115 -153 147 -261 24 -80
56 -150 74 -162 6 -4 25 -8 43 -8 23 0 33 5 38 20 8 25 -1 40 -24 40 -27 0
-37 17 -65 110 -13 47 -28 94 -32 105 -16 43 -95 157 -164 234 -70 80 -104 99
-116 66z"/>
<path d="M4937 1348 c-15 -8 -17 -42 -17 -378 0 -202 3 -375 6 -384 3 -9 17
-16 30 -16 l24 0 0 389 c0 408 -1 413 -43 389z"/>
<path d="M3913 1228 c-12 -13 -68 -86 -125 -163 -58 -77 -134 -172 -169 -211
-75 -84 -159 -212 -159 -242 0 -12 2 -22 4 -22 2 0 11 -2 18 -5 15 -6 82 76
114 137 9 18 40 57 69 88 54 57 193 235 270 344 33 48 41 66 34 79 -13 23 -32
21 -56 -5z"/>
<path d="M4026 111 c-4 -5 -1 -32 5 -60 10 -48 13 -51 41 -51 l31 0 -6 50 c-3
28 -9 55 -12 60 -8 13 -52 13 -59 1z"/>
</g>
</svg>
